<svg width="237" height="38" viewBox="0 0 237 38" fill="none" xmlns="http://www.w3.org/2000/svg">
<path d="M44.6216 10.3108V28.3565C44.6216 30.9348 43.2569 32.119 40.7872 32.119H34.0707C31.6017 32.119 30.2377 30.9348 30.2377 28.3565V10.3108H10.553V-0.000118362H5.40711V10.3108H0V15.4157H5.40711V28.2527C5.40711 33.7723 9.1855 37.1724 14.3853 37.1724H17.0623L17.1673 32.0695H14.3853C11.9192 32.0695 10.553 30.78 10.553 28.2527V15.4157H25.0917V28.3565C25.0917 33.8218 28.978 37.1724 34.0707 37.1724H40.7872C45.8813 37.1724 49.7655 33.8218 49.7655 28.3565V10.3108H44.6216Z" fill="#D0C7C0"/>
<path d="M64.3126 19.2505C62.6734 19.2505 62.0389 18.2279 62.0389 16.7217V11.2682H60.2765V10.4718H62.0389V8.08129L62.9191 7.87427V10.4718H65.6535V11.2682H62.9191V16.6881C62.9191 17.7093 63.2006 18.4383 64.384 18.4383C64.8601 18.4383 65.2999 18.3661 65.776 18.2802V19.0428C65.2831 19.1466 64.8069 19.2505 64.3126 19.2505Z" fill="#D0C7C0"/>
<path d="M74.8019 15.0088H68.0679C68.0861 16.0128 68.4201 16.9461 68.9837 17.6049C69.4781 18.1778 70.1657 18.523 71.118 18.523C71.8939 18.523 72.564 18.2452 73.0394 17.761C73.3573 17.4323 73.6038 17.0506 73.7088 16.532H74.6247C74.5022 17.2768 74.1325 17.8834 73.6388 18.3497C73.0051 18.9721 72.1228 19.3538 71.118 19.3538C69.8485 19.3538 68.9494 18.8346 68.3143 18.1262C67.591 17.2954 67.1863 16.1511 67.1863 14.8354C67.1863 13.7454 67.362 12.6712 68.0497 11.7538C68.7905 10.7669 69.8135 10.2477 71.0466 10.2477C73.4267 10.2477 74.8201 12.2565 74.8201 14.4366C74.8201 14.6456 74.8019 14.799 74.8019 15.0088ZM71.0466 11.0619C69.2309 11.0619 68.0861 12.4979 68.0861 14.211H73.9203C73.886 12.5667 72.8448 11.0619 71.0466 11.0619Z" fill="#D0C7C0"/>
<path d="M80.5142 19.3538C79.4212 19.3538 78.5389 18.9398 77.9227 18.3325C77.0054 17.4323 76.6875 16.2721 76.6875 14.799C76.6875 13.33 77.0054 12.1698 77.9227 11.2682C78.5389 10.6624 79.4212 10.2477 80.5142 10.2477C82.3474 10.2477 83.7051 11.4237 83.9166 13.1753H83C82.8046 11.9787 81.8537 11.0963 80.5142 11.0963C79.6669 11.0963 79.015 11.3721 78.5564 11.8397C77.7637 12.6519 77.5866 13.6753 77.5866 14.799C77.5866 15.9269 77.7637 16.9632 78.5564 17.7782C79.015 18.2451 79.6669 18.5044 80.5142 18.5044C81.8712 18.5044 82.8046 17.5712 83.0182 16.3938H83.9516C83.7226 18.0732 82.3642 19.3538 80.5142 19.3538Z" fill="#D0C7C0"/>
<path d="M92.43 19.1287V13.4674C92.43 11.9613 91.7606 11.0617 90.1557 11.0617C87.9878 11.0617 87.2287 12.9296 87.2287 14.7988V19.1287H86.3478V6.62806H87.2287V12.0651C87.7217 10.9551 88.9744 10.2475 90.2082 10.2475C92.2346 10.2475 93.3116 11.4758 93.3116 13.4151V19.1287H92.43Z" fill="#D0C7C0"/>
<path d="M102.708 19.1287V13.4674C102.708 11.9613 102.038 11.0961 100.433 11.0961C98.2649 11.0961 97.508 12.9296 97.508 14.7988V19.1287H96.6257V10.4717H97.4015L97.508 12.0466C98.0016 10.9552 99.2536 10.2475 100.487 10.2475C102.515 10.2475 103.59 11.4757 103.59 13.4151V19.1287H102.708Z" fill="#D0C7C0"/>
<path d="M106.833 6.8543H108.067V8.06536H106.833V6.8543ZM106.992 10.4717H107.927V19.1287H106.992V10.4717Z" fill="#D0C7C0"/>
<path d="M117.182 18.316C116.548 19.0079 115.49 19.3538 114.327 19.3538C113.128 19.3538 112.105 18.9913 111.435 18.2452C110.942 17.6922 110.729 17.2081 110.695 16.497H111.593C111.645 17.0183 111.876 17.4674 112.246 17.8312C112.756 18.316 113.479 18.523 114.327 18.523C115.244 18.523 115.966 18.316 116.407 17.8834C116.723 17.5712 116.882 17.2769 116.882 16.7748C116.882 15.9956 116.318 15.3375 115.261 15.1992L113.55 14.9737C112.828 14.8877 112.052 14.6615 111.558 14.1085C111.241 13.7454 111.064 13.2943 111.064 12.7393C111.064 12.0468 111.365 11.4759 111.823 11.0619C112.458 10.487 113.322 10.2477 114.238 10.2477C115.295 10.2477 116.3 10.575 116.9 11.2682C117.305 11.7359 117.553 12.3081 117.571 12.8603H116.688C116.654 12.5839 116.53 12.1499 116.248 11.8226C115.842 11.3549 115.154 11.0619 114.238 11.0619C113.55 11.0619 113.04 11.1809 112.651 11.4574C112.211 11.7703 111.965 12.1864 111.965 12.652C111.965 13.3802 112.334 13.9345 113.673 14.1085L115.348 14.3341C117.005 14.5576 117.782 15.6662 117.782 16.7218C117.782 17.3642 117.571 17.8834 117.182 18.316Z" fill="#D0C7C0"/>
<path d="M123.581 19.3538C122.488 19.3538 121.608 18.9398 120.991 18.3325C120.074 17.4323 119.755 16.2721 119.755 14.799C119.755 13.33 120.074 12.1698 120.991 11.2682C121.608 10.6624 122.488 10.2477 123.581 10.2477C125.415 10.2477 126.772 11.4237 126.984 13.1753H126.069C125.874 11.9787 124.922 11.0963 123.581 11.0963C122.736 11.0963 122.082 11.3721 121.624 11.8397C120.832 12.6519 120.655 13.6753 120.655 14.799C120.655 15.9269 120.832 16.9632 121.624 17.7782C122.082 18.2451 122.736 18.5044 123.581 18.5044C124.938 18.5044 125.874 17.5712 126.085 16.3938H127.02C126.789 18.0732 125.432 19.3538 123.581 19.3538Z" fill="#D0C7C0"/>
<path d="M135.498 19.1287V13.4674C135.498 11.9613 134.828 11.0617 133.223 11.0617C131.054 11.0617 130.298 12.9296 130.298 14.7988V19.1287H129.414V6.62806H130.298V12.0651C130.79 10.9551 132.041 10.2475 133.275 10.2475C135.305 10.2475 136.379 11.4758 136.379 13.4151V19.1287H135.498Z" fill="#D0C7C0"/>
<path d="M146.551 15.0088H139.818C139.835 16.0128 140.17 16.9461 140.733 17.6049C141.228 18.1778 141.916 18.523 142.867 18.523C143.642 18.523 144.313 18.2452 144.789 17.761C145.106 17.4323 145.353 17.0506 145.459 16.532H146.376C146.252 17.2768 145.881 17.8834 145.388 18.3497C144.753 18.9721 143.872 19.3538 142.867 19.3538C141.596 19.3538 140.699 18.8346 140.065 18.1262C139.342 17.2954 138.935 16.1511 138.935 14.8354C138.935 13.7454 139.112 12.6712 139.799 11.7538C140.54 10.7669 141.562 10.2477 142.797 10.2477C145.177 10.2477 146.569 12.2565 146.569 14.4366C146.569 14.6456 146.551 14.799 146.551 15.0088ZM142.797 11.0619C140.981 11.0619 139.835 12.4979 139.835 14.211H145.67C145.634 12.5667 144.594 11.0619 142.797 11.0619Z" fill="#D0C7C0"/>
<path d="M158.998 19.1109L158.891 17.5353C158.398 18.6446 157.147 19.3364 155.912 19.3364C153.885 19.3364 152.81 18.1075 152.81 16.1681V10.4539H153.691V16.1166C153.691 17.6227 154.36 18.4885 155.966 18.4885C158.132 18.4885 158.891 16.6536 158.891 14.7837V10.4539H159.774V19.1109H158.998Z" fill="#D0C7C0"/>
<path d="M169.347 19.1287V13.4674C169.347 11.9613 168.676 11.0961 167.072 11.0961C164.904 11.0961 164.145 12.9296 164.145 14.7988V19.1287H163.264V10.4717H164.04L164.145 12.0466C164.639 10.9552 165.892 10.2475 167.125 10.2475C169.153 10.2475 170.227 11.4757 170.227 13.4151V19.1287H169.347Z" fill="#D0C7C0"/>
<path d="M173.472 6.8543H174.706V8.06536H173.472V6.8543ZM173.63 10.4717H174.563V19.1287H173.63V10.4717Z" fill="#D0C7C0"/>
<path d="M181.018 19.1287H180.117L176.628 10.4717H177.632L180.595 17.8997L183.431 10.4717H184.368L181.018 19.1287Z" fill="#D0C7C0"/>
<path d="M193.126 15.0088H186.393C186.41 16.0128 186.745 16.9461 187.309 17.6049C187.802 18.1778 188.491 18.523 189.442 18.523C190.219 18.523 190.887 18.2452 191.363 17.761C191.681 17.4323 191.927 17.0506 192.032 16.532H192.95C192.826 17.2768 192.457 17.8834 191.964 18.3497C191.327 18.9721 190.446 19.3538 189.442 19.3538C188.173 19.3538 187.272 18.8346 186.639 18.1262C185.916 17.2954 185.511 16.1511 185.511 14.8354C185.511 13.7454 185.686 12.6712 186.375 11.7538C187.116 10.7669 188.138 10.2477 189.371 10.2477C191.751 10.2477 193.144 12.2565 193.144 14.4366C193.144 14.6456 193.126 14.799 193.126 15.0088ZM189.371 11.0619C187.557 11.0619 186.41 12.4979 186.41 14.211H192.245C192.21 12.5667 191.17 11.0619 189.371 11.0619Z" fill="#D0C7C0"/>
<path d="M199.455 11.2165C197.25 11.2165 196.653 13.1552 196.653 14.9735V19.1287H195.771V10.4717H196.546L196.653 12.2199C197.04 11.0253 198.22 10.385 199.455 10.385C199.737 10.385 200.037 10.385 200.319 10.4373V11.3031C200.037 11.233 199.737 11.2165 199.455 11.2165Z" fill="#D0C7C0"/>
<path d="M208.004 18.316C207.371 19.0079 206.313 19.3538 205.148 19.3538C203.952 19.3538 202.928 18.9913 202.257 18.2452C201.763 17.6922 201.553 17.2081 201.519 16.497H202.416C202.469 17.0183 202.699 17.4674 203.069 17.8312C203.579 18.316 204.302 18.523 205.148 18.523C206.067 18.523 206.789 18.316 207.228 17.8834C207.546 17.5712 207.706 17.2769 207.706 16.7748C207.706 15.9956 207.142 15.3375 206.082 15.1992L204.372 14.9737C203.65 14.8877 202.874 14.6615 202.382 14.1085C202.065 13.7454 201.888 13.2943 201.888 12.7393C201.888 12.0468 202.187 11.4759 202.645 11.0619C203.28 10.487 204.143 10.2477 205.059 10.2477C206.119 10.2477 207.123 10.575 207.724 11.2682C208.13 11.7359 208.376 12.3081 208.392 12.8603H207.511C207.476 12.5839 207.353 12.1499 207.071 11.8226C206.663 11.3549 205.979 11.0619 205.059 11.0619C204.372 11.0619 203.862 11.1809 203.475 11.4574C203.033 11.7703 202.786 12.1864 202.786 12.652C202.786 13.3802 203.157 13.9345 204.495 14.1085L206.171 14.3341C207.829 14.5576 208.604 15.6662 208.604 16.7218C208.604 17.3642 208.392 17.8834 208.004 18.316Z" fill="#D0C7C0"/>
<path d="M211.267 6.8543H212.5V8.06536H211.267V6.8543ZM211.426 10.4717H212.36V19.1287H211.426V10.4717Z" fill="#D0C7C0"/>
<path d="M218.636 19.2505C216.997 19.2505 216.361 18.2279 216.361 16.7217V11.2682H214.599V10.4718H216.361V8.08129L217.242 7.87427V10.4718H219.975V11.2682H217.242V16.6881C217.242 17.7093 217.524 18.4383 218.705 18.4383C219.182 18.4383 219.622 18.3661 220.1 18.2802V19.0428C219.606 19.1466 219.129 19.2505 218.636 19.2505Z" fill="#D0C7C0"/>
<path d="M229.32 19.1825C228.226 19.1825 227.926 18.4026 227.926 17.4845C227.45 18.7142 226.11 19.3538 224.752 19.3538C223.044 19.3538 221.719 18.3497 221.719 16.6882C221.719 15.1477 222.936 14.2289 224.684 14.1085L227.926 13.8823V13.0343C227.926 11.5963 226.938 11.0619 225.599 11.0619C224.207 11.0619 223.149 11.6837 223.06 12.9649H222.179C222.304 11.2167 223.695 10.2477 225.599 10.2477C226.798 10.2477 228.102 10.6452 228.579 11.8397C228.79 12.3762 228.807 12.9298 228.807 13.5027V17.4502C228.807 18.0388 228.896 18.3841 229.496 18.3841C229.601 18.3841 229.654 18.3841 229.742 18.3662V19.1289C229.53 19.1632 229.53 19.1825 229.32 19.1825ZM227.926 14.68L224.77 14.8712C223.465 14.9551 222.62 15.6305 222.62 16.6882C222.62 17.9343 223.572 18.5581 224.822 18.5581C227.044 18.5581 227.926 16.792 227.926 15.1291V14.68ZM223.485 7.252H224.542V8.34201H223.485V7.252ZM226.727 7.252H227.802V8.34201H226.727V7.252Z" fill="#D0C7C0"/>
<path d="M234.958 19.2505C233.319 19.2505 232.683 18.2279 232.683 16.7217V11.2682H230.921V10.4718H232.683V8.08129L233.565 7.87427V10.4718H236.297V11.2682H233.565V16.6881C233.565 17.7093 233.847 18.4383 235.029 18.4383C235.503 18.4383 235.945 18.3661 236.421 18.2802V19.0428C235.928 19.1466 235.451 19.2505 234.958 19.2505Z" fill="#D0C7C0"/>
<path d="M67.6267 37.1813L67.5224 35.6581C67.0449 36.7316 65.7761 37.4062 64.5948 37.4062C63.5914 37.4062 62.8323 37.0961 62.2504 36.5927C61.2631 35.7454 60.8052 34.359 60.8052 32.8714C60.8052 31.4513 61.2463 30.0656 62.1797 29.1997C62.7616 28.6475 63.5557 28.2988 64.5766 28.2988C65.83 28.2988 67.0449 28.992 67.5224 29.9803V24.6814H68.4026V37.1813H67.6267ZM66.4287 29.8235C65.9882 29.4081 65.3888 29.1481 64.5766 29.1481C63.7482 29.1481 63.1495 29.4425 62.6909 29.9101C62.0026 30.6363 61.7036 31.7457 61.7036 32.8529C61.7036 34.0839 62.0558 35.2427 62.8673 35.9531C63.3085 36.3341 63.8714 36.559 64.6137 36.559C65.3888 36.559 65.97 36.2812 66.4105 35.8651C67.2045 35.1065 67.5399 34.0488 67.5399 32.8529C67.5399 31.5717 67.2395 30.5683 66.4287 29.8235Z" fill="#D0C7C0"/>
<path d="M77.5341 36.3685C76.9172 36.9737 76.0545 37.4062 74.9615 37.4062C73.8677 37.4062 73.0051 36.9737 72.3854 36.3685C71.4695 35.4683 71.1362 34.326 71.1362 32.8529C71.1362 31.3819 71.4695 30.2375 72.3854 29.3379C73.0051 28.7314 73.8677 28.2988 74.9615 28.2988C76.0545 28.2988 76.9172 28.7314 77.5341 29.3379C78.4514 30.2375 78.7861 31.3819 78.7861 32.8529C78.7861 34.326 78.4514 35.4683 77.5341 36.3685ZM76.9004 29.9101C76.4424 29.4425 75.8067 29.1481 74.9615 29.1481C74.1163 29.1481 73.4798 29.4425 73.0219 29.9101C72.2285 30.7244 72.0346 31.7285 72.0346 32.8529C72.0346 33.978 72.2285 34.9834 73.0219 35.797C73.4798 36.2653 74.1163 36.559 74.9615 36.559C75.8067 36.559 76.4424 36.2653 76.9004 35.797C77.6944 34.9834 77.887 33.978 77.887 32.8529C77.887 31.7285 77.6944 30.7244 76.9004 29.9101Z" fill="#D0C7C0"/>
<path d="M85.203 29.2685C82.9987 29.2685 82.4 31.2093 82.4 33.0276V37.1814H81.5184V28.5237H82.2928L82.4 30.274C82.7886 29.0781 83.9685 28.4378 85.203 28.4378C85.4851 28.4378 85.7848 28.4378 86.067 28.4907V29.3565C85.7848 29.2871 85.4851 29.2685 85.203 29.2685Z" fill="#D0C7C0"/>
<path d="M91.1212 37.3037C89.4827 37.3037 88.8476 36.2811 88.8476 34.7756V29.32H87.0851V28.5236H88.8476V26.1352L89.7299 25.9261V28.5236H92.4621V29.32H89.7299V34.7406C89.7299 35.7612 90.01 36.4888 91.1933 36.4888C91.6688 36.4888 92.1099 36.4207 92.5847 36.334V37.096C92.0917 37.1992 91.6149 37.3037 91.1212 37.3037Z" fill="#D0C7C0"/>
<path d="M106.161 37.1814V31.5201C106.161 30.0133 105.595 29.1145 104.061 29.1145C103.392 29.1145 102.898 29.338 102.493 29.7032C101.805 30.3434 101.453 31.2423 101.453 32.2835V37.1814H100.554V31.5201C100.554 30.0133 99.972 29.1145 98.4385 29.1145C97.7684 29.1145 97.2565 29.338 96.8686 29.7032C96.0753 30.426 95.8113 31.6247 95.8113 32.8529V37.1814H94.9304V28.5237H95.7063L95.8113 30.0133C96.2699 29.0271 97.2222 28.2989 98.4896 28.2989C100.026 28.2989 100.924 29.043 101.277 30.1694C101.735 29.0966 102.669 28.2989 104.115 28.2989C106.177 28.2989 107.042 29.6152 107.042 31.4686V37.1814H106.161Z" fill="#D0C7C0"/>
<path d="M116.368 37.1646L116.261 35.5891C115.767 36.697 114.517 37.3909 113.282 37.3909C111.254 37.3909 110.179 36.1598 110.179 34.2198V28.5076H111.061V34.1689C111.061 35.675 111.732 36.5408 113.335 36.5408C115.504 36.5408 116.261 34.7053 116.261 32.8354V28.5076H117.143V37.1646H116.368Z" fill="#D0C7C0"/>
<path d="M126.716 37.1814V31.5201C126.716 30.0133 126.045 29.1482 124.443 29.1482C122.273 29.1482 121.515 30.9837 121.515 32.8529V37.1814H120.634V28.5237H121.409L121.515 30.1C122.009 29.0092 123.261 28.2989 124.495 28.2989C126.524 28.2989 127.599 29.5299 127.599 31.4686V37.1814H126.716Z" fill="#D0C7C0"/>
<path d="M136.942 37.1813L136.835 35.6581C136.36 36.7316 135.09 37.4062 133.908 37.4062C132.903 37.4062 132.146 37.0961 131.563 36.5927C130.576 35.7454 130.118 34.359 130.118 32.8714C130.118 31.4513 130.56 30.0656 131.495 29.1997C132.077 28.6475 132.868 28.2988 133.891 28.2988C135.143 28.2988 136.36 28.992 136.835 29.9803V24.6814H137.717V37.1813H136.942ZM135.741 29.8235C135.3 29.4081 134.702 29.1481 133.891 29.1481C133.062 29.1481 132.463 29.4425 132.004 29.9101C131.317 30.6363 131.017 31.7457 131.017 32.8529C131.017 34.0839 131.371 35.2427 132.179 35.9531C132.621 36.3341 133.186 36.559 133.926 36.559C134.702 36.559 135.284 36.2812 135.724 35.8651C136.517 35.1065 136.853 34.0488 136.853 32.8529C136.853 31.5717 136.553 30.5683 135.741 29.8235Z" fill="#D0C7C0"/>
</svg>
