<svg width="237" height="38" viewBox="0 0 237 38" fill="none" xmlns="http://www.w3.org/2000/svg">
<path d="M44.6216 10.3108V28.3565C44.6216 30.9348 43.2569 32.119 40.7872 32.119H34.0707C31.6017 32.119 30.2377 30.9348 30.2377 28.3565V10.3108H10.553V-0.000118362H5.40711V10.3108H0V15.4157H5.40711V28.2527C5.40711 33.7723 9.1855 37.1724 14.3853 37.1724H17.0623L17.1673 32.0695H14.3853C11.9192 32.0695 10.553 30.78 10.553 28.2527V15.4157H25.0917V28.3565C25.0917 33.8218 28.978 37.1724 34.0707 37.1724H40.7872C45.8813 37.1724 49.7655 33.8218 49.7655 28.3565V10.3108H44.6216Z" fill="#08171C"/>
<path d="M64.3126 19.2505C62.6734 19.2505 62.0389 18.2279 62.0389 16.7217V11.2682H60.2765V10.4718H62.0389V8.08129L62.9191 7.87427V10.4718H65.6535V11.2682H62.9191V16.6881C62.9191 17.7093 63.2006 18.4383 64.384 18.4383C64.8601 18.4383 65.2999 18.3661 65.776 18.2802V19.0428C65.2831 19.1466 64.8069 19.2505 64.3126 19.2505Z" fill="#08171C"/>
<path d="M74.8019 15.0085H68.0679C68.0861 16.0126 68.4201 16.9458 68.9837 17.6047C69.4781 18.1775 70.1657 18.5227 71.118 18.5227C71.8939 18.5227 72.564 18.2449 73.0394 17.7608C73.3573 17.432 73.6038 17.0503 73.7088 16.5318H74.6247C74.5022 17.2766 74.1325 17.8832 73.6388 18.3494C73.0051 18.9718 72.1228 19.3535 71.118 19.3535C69.8485 19.3535 68.9494 18.8343 68.3143 18.126C67.591 17.2952 67.1863 16.1508 67.1863 14.8352C67.1863 13.7452 67.362 12.6709 68.0497 11.7535C68.7905 10.7667 69.8135 10.2475 71.0466 10.2475C73.4267 10.2475 74.8201 12.2563 74.8201 14.4363C74.8201 14.6454 74.8019 14.7988 74.8019 15.0085ZM71.0466 11.0617C69.2309 11.0617 68.0861 12.4976 68.0861 14.2107H73.9203C73.886 12.5664 72.8448 11.0617 71.0466 11.0617Z" fill="#08171C"/>
<path d="M80.5142 19.3535C79.4212 19.3535 78.5389 18.9395 77.9227 18.3323C77.0054 17.432 76.6875 16.2719 76.6875 14.7988C76.6875 13.3298 77.0054 12.1696 77.9227 11.268C78.5389 10.6621 79.4212 10.2475 80.5142 10.2475C82.3474 10.2475 83.7051 11.4234 83.9166 13.1751H83C82.8046 11.9784 81.8537 11.0961 80.5142 11.0961C79.6669 11.0961 79.015 11.3718 78.5564 11.8395C77.7637 12.6517 77.5866 13.675 77.5866 14.7988C77.5866 15.9266 77.7637 16.963 78.5564 17.7779C79.015 18.2449 79.6669 18.5042 80.5142 18.5042C81.8712 18.5042 82.8046 17.5709 83.0182 16.3936H83.9516C83.7226 18.073 82.3642 19.3535 80.5142 19.3535Z" fill="#08171C"/>
<path d="M92.43 19.1289V13.4676C92.43 11.9615 91.7606 11.062 90.1557 11.062C87.9878 11.062 87.2287 12.9298 87.2287 14.7991V19.1289H86.3478V6.6283H87.2287V12.0654C87.7217 10.9554 88.9744 10.2478 90.2082 10.2478C92.2346 10.2478 93.3116 11.476 93.3116 13.4154V19.1289H92.43Z" fill="#08171C"/>
<path d="M102.708 19.1289V13.4676C102.708 11.9615 102.038 11.0964 100.433 11.0964C98.2649 11.0964 97.508 12.9298 97.508 14.7991V19.1289H96.6257V10.4719H97.4015L97.508 12.0468C98.0016 10.9554 99.2536 10.2478 100.487 10.2478C102.515 10.2478 103.59 11.476 103.59 13.4154V19.1289H102.708Z" fill="#08171C"/>
<path d="M106.833 6.85455H108.067V8.06561H106.833V6.85455ZM106.992 10.4719H107.927V19.1289H106.992V10.4719Z" fill="#08171C"/>
<path d="M117.182 18.3158C116.548 19.0076 115.49 19.3535 114.327 19.3535C113.128 19.3535 112.105 18.9911 111.435 18.2449C110.942 17.692 110.729 17.2078 110.695 16.4967H111.593C111.645 17.018 111.876 17.4671 112.246 17.8309C112.756 18.3158 113.479 18.5227 114.327 18.5227C115.244 18.5227 115.966 18.3157 116.407 17.8832C116.723 17.571 116.882 17.2766 116.882 16.7746C116.882 15.9954 116.318 15.3372 115.261 15.199L113.55 14.9734C112.828 14.8875 112.052 14.6612 111.558 14.1083C111.241 13.7452 111.064 13.294 111.064 12.7391C111.064 12.0465 111.365 11.4757 111.823 11.0617C112.458 10.4868 113.322 10.2475 114.238 10.2475C115.295 10.2475 116.3 10.5748 116.9 11.268C117.305 11.7357 117.553 12.3078 117.571 12.8601H116.688C116.654 12.5836 116.53 12.1497 116.248 11.8223C115.842 11.3547 115.154 11.0617 114.238 11.0617C113.55 11.0617 113.04 11.1807 112.651 11.4571C112.211 11.7701 111.965 12.1861 111.965 12.6517C111.965 13.38 112.334 13.9343 113.673 14.1083L115.348 14.3339C117.005 14.5574 117.782 15.666 117.782 16.7216C117.782 17.3639 117.571 17.8832 117.182 18.3158Z" fill="#08171C"/>
<path d="M123.581 19.3535C122.488 19.3535 121.608 18.9395 120.991 18.3323C120.074 17.432 119.755 16.2719 119.755 14.7988C119.755 13.3298 120.074 12.1696 120.991 11.268C121.608 10.6621 122.488 10.2475 123.581 10.2475C125.415 10.2475 126.772 11.4234 126.984 13.1751H126.069C125.874 11.9784 124.922 11.0961 123.581 11.0961C122.736 11.0961 122.082 11.3718 121.624 11.8395C120.832 12.6517 120.655 13.675 120.655 14.7988C120.655 15.9266 120.832 16.963 121.624 17.7779C122.082 18.2449 122.736 18.5042 123.581 18.5042C124.938 18.5042 125.874 17.5709 126.085 16.3936H127.02C126.789 18.073 125.432 19.3535 123.581 19.3535Z" fill="#08171C"/>
<path d="M135.498 19.1289V13.4676C135.498 11.9615 134.828 11.062 133.223 11.062C131.054 11.062 130.298 12.9298 130.298 14.7991V19.1289H129.414V6.6283H130.298V12.0654C130.79 10.9554 132.041 10.2478 133.275 10.2478C135.305 10.2478 136.379 11.476 136.379 13.4154V19.1289H135.498Z" fill="#08171C"/>
<path d="M146.551 15.0085H139.818C139.835 16.0126 140.17 16.9458 140.733 17.6047C141.228 18.1775 141.916 18.5227 142.867 18.5227C143.642 18.5227 144.313 18.2449 144.789 17.7608C145.106 17.432 145.353 17.0503 145.459 16.5318H146.376C146.252 17.2766 145.881 17.8832 145.388 18.3494C144.753 18.9718 143.872 19.3535 142.867 19.3535C141.596 19.3535 140.699 18.8343 140.065 18.126C139.342 17.2952 138.935 16.1508 138.935 14.8352C138.935 13.7452 139.112 12.6709 139.799 11.7535C140.54 10.7667 141.562 10.2475 142.797 10.2475C145.177 10.2475 146.569 12.2563 146.569 14.4363C146.569 14.6454 146.551 14.7988 146.551 15.0085ZM142.797 11.0617C140.981 11.0617 139.835 12.4976 139.835 14.2107H145.67C145.634 12.5664 144.594 11.0617 142.797 11.0617Z" fill="#08171C"/>
<path d="M158.998 19.1109L158.891 17.5353C158.398 18.6446 157.147 19.3364 155.912 19.3364C153.885 19.3364 152.81 18.1075 152.81 16.1681V10.4539H153.691V16.1166C153.691 17.6227 154.36 18.4885 155.966 18.4885C158.132 18.4885 158.891 16.6536 158.891 14.7837V10.4539H159.774V19.1109H158.998Z" fill="#08171C"/>
<path d="M169.347 19.1289V13.4676C169.347 11.9615 168.676 11.0964 167.072 11.0964C164.904 11.0964 164.145 12.9298 164.145 14.7991V19.1289H163.264V10.4719H164.04L164.145 12.0468C164.639 10.9554 165.892 10.2478 167.125 10.2478C169.153 10.2478 170.227 11.476 170.227 13.4154V19.1289H169.347Z" fill="#08171C"/>
<path d="M173.472 6.85455H174.706V8.06561H173.472V6.85455ZM173.63 10.4719H174.563V19.1289H173.63V10.4719Z" fill="#08171C"/>
<path d="M181.018 19.1289H180.117L176.628 10.4719H177.632L180.595 17.9L183.431 10.4719H184.368L181.018 19.1289Z" fill="#08171C"/>
<path d="M193.126 15.0085H186.393C186.41 16.0126 186.745 16.9458 187.309 17.6047C187.802 18.1775 188.491 18.5227 189.442 18.5227C190.219 18.5227 190.887 18.2449 191.363 17.7608C191.681 17.432 191.927 17.0503 192.032 16.5318H192.95C192.826 17.2766 192.457 17.8832 191.964 18.3494C191.327 18.9718 190.446 19.3535 189.442 19.3535C188.173 19.3535 187.272 18.8343 186.639 18.126C185.916 17.2952 185.511 16.1508 185.511 14.8352C185.511 13.7452 185.686 12.6709 186.375 11.7535C187.116 10.7667 188.138 10.2475 189.371 10.2475C191.751 10.2475 193.144 12.2563 193.144 14.4363C193.144 14.6454 193.126 14.7988 193.126 15.0085ZM189.371 11.0617C187.557 11.0617 186.41 12.4976 186.41 14.2107H192.245C192.21 12.5664 191.17 11.0617 189.371 11.0617Z" fill="#08171C"/>
<path d="M199.455 11.2168C197.25 11.2168 196.653 13.1554 196.653 14.9737V19.1289H195.771V10.4719H196.546L196.653 12.2201C197.04 11.0256 198.22 10.3853 199.455 10.3853C199.737 10.3853 200.037 10.3853 200.319 10.4375V11.3034C200.037 11.2332 199.737 11.2168 199.455 11.2168Z" fill="#08171C"/>
<path d="M208.004 18.3158C207.371 19.0076 206.313 19.3535 205.148 19.3535C203.952 19.3535 202.928 18.9911 202.257 18.2449C201.763 17.692 201.553 17.2078 201.519 16.4967H202.416C202.469 17.018 202.699 17.4671 203.069 17.8309C203.579 18.3158 204.302 18.5227 205.148 18.5227C206.067 18.5227 206.789 18.3157 207.228 17.8832C207.546 17.571 207.706 17.2766 207.706 16.7746C207.706 15.9954 207.142 15.3372 206.082 15.199L204.372 14.9734C203.65 14.8875 202.874 14.6612 202.382 14.1083C202.065 13.7452 201.888 13.294 201.888 12.7391C201.888 12.0465 202.187 11.4757 202.645 11.0617C203.28 10.4868 204.143 10.2475 205.059 10.2475C206.119 10.2475 207.123 10.5748 207.724 11.268C208.13 11.7357 208.376 12.3078 208.392 12.8601H207.511C207.476 12.5836 207.353 12.1497 207.071 11.8223C206.663 11.3547 205.979 11.0617 205.059 11.0617C204.372 11.0617 203.862 11.1807 203.475 11.4571C203.033 11.7701 202.786 12.1861 202.786 12.6517C202.786 13.38 203.157 13.9343 204.495 14.1083L206.171 14.3339C207.829 14.5574 208.604 15.666 208.604 16.7216C208.604 17.3639 208.392 17.8832 208.004 18.3158Z" fill="#08171C"/>
<path d="M211.267 6.85455H212.5V8.06561H211.267V6.85455ZM211.426 10.4719H212.36V19.1289H211.426V10.4719Z" fill="#08171C"/>
<path d="M218.636 19.2505C216.997 19.2505 216.361 18.2279 216.361 16.7217V11.2682H214.599V10.4718H216.361V8.08129L217.242 7.87427V10.4718H219.975V11.2682H217.242V16.6881C217.242 17.7093 217.524 18.4383 218.705 18.4383C219.182 18.4383 219.622 18.3661 220.1 18.2802V19.0428C219.606 19.1466 219.129 19.2505 218.636 19.2505Z" fill="#08171C"/>
<path d="M229.32 19.1823C228.226 19.1823 227.926 18.4024 227.926 17.4843C227.45 18.7139 226.11 19.3535 224.752 19.3535C223.044 19.3535 221.719 18.3495 221.719 16.6879C221.719 15.1475 222.936 14.2286 224.684 14.1083L227.926 13.882V13.0341C227.926 11.596 226.938 11.0617 225.599 11.0617C224.207 11.0617 223.149 11.6834 223.06 12.9646H222.179C222.304 11.2165 223.695 10.2475 225.599 10.2475C226.798 10.2475 228.102 10.6449 228.579 11.8395C228.79 12.3759 228.807 12.9295 228.807 13.5024V17.4499C228.807 18.0386 228.896 18.3839 229.496 18.3839C229.601 18.3839 229.654 18.3839 229.742 18.366V19.1286C229.53 19.163 229.53 19.1823 229.32 19.1823ZM227.926 14.6798L224.77 14.871C223.465 14.9549 222.62 15.6302 222.62 16.6879C222.62 17.9341 223.572 18.5578 224.822 18.5578C227.044 18.5578 227.926 16.7918 227.926 15.1289V14.6798ZM223.485 7.25176H224.542V8.34176H223.485V7.25176ZM226.727 7.25176H227.802V8.34176H226.727V7.25176Z" fill="#08171C"/>
<path d="M234.958 19.2505C233.319 19.2505 232.683 18.2279 232.683 16.7217V11.2682H230.921V10.4718H232.683V8.08129L233.565 7.87427V10.4718H236.297V11.2682H233.565V16.6881C233.565 17.7093 233.847 18.4383 235.029 18.4383C235.503 18.4383 235.945 18.3661 236.421 18.2802V19.0428C235.928 19.1466 235.451 19.2505 234.958 19.2505Z" fill="#08171C"/>
<path d="M67.6267 37.1813L67.5224 35.6581C67.0449 36.7316 65.7761 37.4062 64.5948 37.4062C63.5914 37.4062 62.8323 37.0961 62.2504 36.5927C61.2631 35.7454 60.8052 34.359 60.8052 32.8714C60.8052 31.4513 61.2463 30.0656 62.1797 29.1997C62.7616 28.6475 63.5557 28.2988 64.5766 28.2988C65.83 28.2988 67.0449 28.992 67.5224 29.9803V24.6814H68.4026V37.1813H67.6267ZM66.4287 29.8235C65.9882 29.4081 65.3888 29.1481 64.5766 29.1481C63.7482 29.1481 63.1495 29.4425 62.6909 29.9101C62.0026 30.6363 61.7036 31.7457 61.7036 32.8529C61.7036 34.0839 62.0558 35.2427 62.8673 35.9531C63.3085 36.3341 63.8714 36.559 64.6137 36.559C65.3888 36.559 65.97 36.2812 66.4105 35.8651C67.2045 35.1065 67.5399 34.0488 67.5399 32.8529C67.5399 31.5717 67.2395 30.5683 66.4287 29.8235Z" fill="#08171C"/>
<path d="M77.5341 36.3685C76.9172 36.9737 76.0545 37.4062 74.9615 37.4062C73.8677 37.4062 73.0051 36.9737 72.3854 36.3685C71.4695 35.4683 71.1362 34.326 71.1362 32.8529C71.1362 31.3819 71.4695 30.2375 72.3854 29.3379C73.0051 28.7314 73.8677 28.2988 74.9615 28.2988C76.0545 28.2988 76.9172 28.7314 77.5341 29.3379C78.4514 30.2375 78.7861 31.3819 78.7861 32.8529C78.7861 34.326 78.4514 35.4683 77.5341 36.3685ZM76.9004 29.9101C76.4424 29.4425 75.8067 29.1481 74.9615 29.1481C74.1163 29.1481 73.4798 29.4425 73.0219 29.9101C72.2285 30.7244 72.0346 31.7285 72.0346 32.8529C72.0346 33.978 72.2285 34.9834 73.0219 35.797C73.4798 36.2653 74.1163 36.559 74.9615 36.559C75.8067 36.559 76.4424 36.2653 76.9004 35.797C77.6944 34.9834 77.887 33.978 77.887 32.8529C77.887 31.7285 77.6944 30.7244 76.9004 29.9101Z" fill="#08171C"/>
<path d="M85.203 29.2683C82.9987 29.2683 82.4 31.209 82.4 33.0274V37.1812H81.5184V28.5235H82.2928L82.4 30.2738C82.7886 29.0778 83.9685 28.4375 85.203 28.4375C85.4851 28.4375 85.7848 28.4375 86.067 28.4905V29.3563C85.7848 29.2868 85.4851 29.2683 85.203 29.2683Z" fill="#08171C"/>
<path d="M91.1212 37.3037C89.4827 37.3037 88.8476 36.2811 88.8476 34.7756V29.32H87.0851V28.5236H88.8476V26.1352L89.7299 25.9261V28.5236H92.4621V29.32H89.7299V34.7406C89.7299 35.7612 90.01 36.4888 91.1933 36.4888C91.6688 36.4888 92.1099 36.4207 92.5847 36.334V37.096C92.0917 37.1992 91.6149 37.3037 91.1212 37.3037Z" fill="#08171C"/>
<path d="M106.161 37.1812V31.5199C106.161 30.0131 105.595 29.1142 104.061 29.1142C103.392 29.1142 102.898 29.3378 102.493 29.7029C101.805 30.3432 101.453 31.2421 101.453 32.2833V37.1812H100.554V31.5199C100.554 30.0131 99.972 29.1142 98.4385 29.1142C97.7684 29.1142 97.2565 29.3378 96.8686 29.7029C96.0753 30.4257 95.8113 31.6244 95.8113 32.8527V37.1812H94.9304V28.5235H95.7063L95.8113 30.0131C96.2699 29.0269 97.2222 28.2986 98.4896 28.2986C100.026 28.2986 100.924 29.0427 101.277 30.1692C101.735 29.0964 102.669 28.2986 104.115 28.2986C106.177 28.2986 107.042 29.6149 107.042 31.4683V37.1812H106.161Z" fill="#08171C"/>
<path d="M116.368 37.1648L116.261 35.5893C115.767 36.6972 114.517 37.3911 113.282 37.3911C111.254 37.3911 110.179 36.1601 110.179 34.22V28.5078H111.061V34.1692C111.061 35.6753 111.732 36.5411 113.335 36.5411C115.504 36.5411 116.261 34.7056 116.261 32.8357V28.5078H117.143V37.1648H116.368Z" fill="#08171C"/>
<path d="M126.716 37.1812V31.5199C126.716 30.0131 126.045 29.1479 124.443 29.1479C122.273 29.1479 121.515 30.9835 121.515 32.8527V37.1812H120.634V28.5235H121.409L121.515 30.0997C122.009 29.009 123.261 28.2986 124.495 28.2986C126.524 28.2986 127.599 29.5296 127.599 31.4683V37.1812H126.716Z" fill="#08171C"/>
<path d="M136.942 37.1813L136.835 35.6581C136.36 36.7316 135.09 37.4062 133.908 37.4062C132.903 37.4062 132.146 37.0961 131.563 36.5927C130.576 35.7454 130.118 34.359 130.118 32.8714C130.118 31.4513 130.56 30.0656 131.495 29.1997C132.077 28.6475 132.868 28.2988 133.891 28.2988C135.143 28.2988 136.36 28.992 136.835 29.9803V24.6814H137.717V37.1813H136.942ZM135.741 29.8235C135.3 29.4081 134.702 29.1481 133.891 29.1481C133.062 29.1481 132.463 29.4425 132.004 29.9101C131.317 30.6363 131.017 31.7457 131.017 32.8529C131.017 34.0839 131.371 35.2427 132.179 35.9531C132.621 36.3341 133.186 36.559 133.926 36.559C134.702 36.559 135.284 36.2812 135.724 35.8651C136.517 35.1065 136.853 34.0488 136.853 32.8529C136.853 31.5717 136.553 30.5683 135.741 29.8235Z" fill="#08171C"/>
</svg>
